<svg width="321" height="49" viewBox="0 0 321 49" fill="none" xmlns="http://www.w3.org/2000/svg">
<path d="M1.73438 8.82031H8.07422C9.50391 8.82031 10.5938 8.92969 11.3438 9.14844C12.3516 9.44531 13.2148 9.97266 13.9336 10.7305C14.6523 11.4883 15.1992 12.418 15.5742 13.5195C15.9492 14.6133 16.1367 15.9648 16.1367 17.5742C16.1367 18.9883 15.9609 20.207 15.6094 21.2305C15.1797 22.4805 14.5664 23.4922 13.7695 24.2656C13.168 24.8516 12.3555 25.3086 11.332 25.6367C10.5664 25.8789 9.54297 26 8.26172 26H1.73438V8.82031ZM5.20312 11.7266V23.1055H7.79297C8.76172 23.1055 9.46094 23.0508 9.89062 22.9414C10.4531 22.8008 10.918 22.5625 11.2852 22.2266C11.6602 21.8906 11.9648 21.3398 12.1992 20.5742C12.4336 19.8008 12.5508 18.75 12.5508 17.4219C12.5508 16.0938 12.4336 15.0742 12.1992 14.3633C11.9648 13.6523 11.6367 13.0977 11.2148 12.6992C10.793 12.3008 10.2578 12.0312 9.60938 11.8906C9.125 11.7812 8.17578 11.7266 6.76172 11.7266H5.20312ZM19.0664 11.8672V8.82031H22.3594V11.8672H19.0664ZM19.0664 26V13.5547H22.3594V26H19.0664ZM24.5859 22.4492L27.8906 21.9453C28.0312 22.5859 28.3164 23.0742 28.7461 23.4102C29.1758 23.7383 29.7773 23.9023 30.5508 23.9023C31.4023 23.9023 32.043 23.7461 32.4727 23.4336C32.7617 23.2148 32.9062 22.9219 32.9062 22.5547C32.9062 22.3047 32.8281 22.0977 32.6719 21.9336C32.5078 21.7773 32.1406 21.6328 31.5703 21.5C28.9141 20.9141 27.2305 20.3789 26.5195 19.8945C25.5352 19.2227 25.043 18.2891 25.043 17.0938C25.043 16.0156 25.4688 15.1094 26.3203 14.375C27.1719 13.6406 28.4922 13.2734 30.2812 13.2734C31.9844 13.2734 33.25 13.5508 34.0781 14.1055C34.9062 14.6602 35.4766 15.4805 35.7891 16.5664L32.6836 17.1406C32.5508 16.6562 32.2969 16.2852 31.9219 16.0273C31.5547 15.7695 31.0273 15.6406 30.3398 15.6406C29.4727 15.6406 28.8516 15.7617 28.4766 16.0039C28.2266 16.1758 28.1016 16.3984 28.1016 16.6719C28.1016 16.9062 28.2109 17.1055 28.4297 17.2695C28.7266 17.4883 29.75 17.7969 31.5 18.1953C33.2578 18.5938 34.4844 19.082 35.1797 19.6602C35.8672 20.2461 36.2109 21.0625 36.2109 22.1094C36.2109 23.25 35.7344 24.2305 34.7812 25.0508C33.8281 25.8711 32.418 26.2812 30.5508 26.2812C28.8555 26.2812 27.5117 25.9375 26.5195 25.25C25.5352 24.5625 24.8906 23.6289 24.5859 22.4492ZM49.957 17.2344L46.7109 17.8203C46.6016 17.1719 46.3516 16.6836 45.9609 16.3555C45.5781 16.0273 45.0781 15.8633 44.4609 15.8633C43.6406 15.8633 42.9844 16.1484 42.4922 16.7188C42.0078 17.2812 41.7656 18.2266 41.7656 19.5547C41.7656 21.0312 42.0117 22.0742 42.5039 22.6836C43.0039 23.293 43.6719 23.5977 44.5078 23.5977C45.1328 23.5977 45.6445 23.4219 46.043 23.0703C46.4414 22.7109 46.7227 22.0977 46.8867 21.2305L50.1211 21.7812C49.7852 23.2656 49.1406 24.3867 48.1875 25.1445C47.2344 25.9023 45.957 26.2812 44.3555 26.2812C42.5352 26.2812 41.082 25.707 39.9961 24.5586C38.918 23.4102 38.3789 21.8203 38.3789 19.7891C38.3789 17.7344 38.9219 16.1367 40.0078 14.9961C41.0938 13.8477 42.5625 13.2734 44.4141 13.2734C45.9297 13.2734 47.1328 13.6016 48.0234 14.2578C48.9219 14.9062 49.5664 15.8984 49.957 17.2344ZM51.7031 19.6016C51.7031 18.5078 51.9727 17.4492 52.5117 16.4258C53.0508 15.4023 53.8125 14.6211 54.7969 14.082C55.7891 13.543 56.8945 13.2734 58.1133 13.2734C59.9961 13.2734 61.5391 13.8867 62.7422 15.1133C63.9453 16.332 64.5469 17.875 64.5469 19.7422C64.5469 21.625 63.9375 23.1875 62.7188 24.4297C61.5078 25.6641 59.9805 26.2812 58.1367 26.2812C56.9961 26.2812 55.9062 26.0234 54.8672 25.5078C53.8359 24.9922 53.0508 24.2383 52.5117 23.2461C51.9727 22.2461 51.7031 21.0312 51.7031 19.6016ZM55.0781 19.7773C55.0781 21.0117 55.3711 21.957 55.957 22.6133C56.543 23.2695 57.2656 23.5977 58.125 23.5977C58.9844 23.5977 59.7031 23.2695 60.2812 22.6133C60.8672 21.957 61.1602 21.0039 61.1602 19.7539C61.1602 18.5352 60.8672 17.5977 60.2812 16.9414C59.7031 16.2852 58.9844 15.957 58.125 15.957C57.2656 15.957 56.543 16.2852 55.957 16.9414C55.3711 17.5977 55.0781 18.543 55.0781 19.7773ZM70.5586 26L65.543 13.5547H69L71.3438 19.9062L72.0234 22.0273C72.2031 21.4883 72.3164 21.1328 72.3633 20.9609C72.4727 20.6094 72.5898 20.2578 72.7148 19.9062L75.082 13.5547H78.4688L73.5234 26H70.5586ZM87.7031 22.0391L90.9844 22.5898C90.5625 23.793 89.8945 24.7109 88.9805 25.3438C88.0742 25.9688 86.9375 26.2812 85.5703 26.2812C83.4062 26.2812 81.8047 25.5742 80.7656 24.1602C79.9453 23.0273 79.5352 21.5977 79.5352 19.8711C79.5352 17.8086 80.0742 16.1953 81.1523 15.0312C82.2305 13.8594 83.5938 13.2734 85.2422 13.2734C87.0938 13.2734 88.5547 13.8867 89.625 15.1133C90.6953 16.332 91.207 18.2031 91.1602 20.7266H82.9102C82.9336 21.7031 83.1992 22.4648 83.707 23.0117C84.2148 23.5508 84.8477 23.8203 85.6055 23.8203C86.1211 23.8203 86.5547 23.6797 86.9062 23.3984C87.2578 23.1172 87.5234 22.6641 87.7031 22.0391ZM87.8906 18.7109C87.8672 17.7578 87.6211 17.0352 87.1523 16.543C86.6836 16.043 86.1133 15.793 85.4414 15.793C84.7227 15.793 84.1289 16.0547 83.6602 16.5781C83.1914 17.1016 82.9609 17.8125 82.9688 18.7109H87.8906ZM97.0078 26H93.7148V13.5547H96.7734V15.3242C97.2969 14.4883 97.7656 13.9375 98.1797 13.6719C98.6016 13.4062 99.0781 13.2734 99.6094 13.2734C100.359 13.2734 101.082 13.4805 101.777 13.8945L100.758 16.7656C100.203 16.4062 99.6875 16.2266 99.2109 16.2266C98.75 16.2266 98.3594 16.3555 98.0391 16.6133C97.7188 16.8633 97.4648 17.3203 97.2773 17.9844C97.0977 18.6484 97.0078 20.0391 97.0078 22.1562V26ZM109.887 26V8.82031H113.18V26H109.887ZM119.027 17.3516L116.039 16.8125C116.375 15.6094 116.953 14.7188 117.773 14.1406C118.594 13.5625 119.812 13.2734 121.43 13.2734C122.898 13.2734 123.992 13.4492 124.711 13.8008C125.43 14.1445 125.934 14.5859 126.223 15.125C126.52 15.6562 126.668 16.6367 126.668 18.0664L126.633 21.9102C126.633 23.0039 126.684 23.8125 126.785 24.3359C126.895 24.8516 127.094 25.4062 127.383 26H124.125C124.039 25.7812 123.934 25.457 123.809 25.0273C123.754 24.832 123.715 24.7031 123.691 24.6406C123.129 25.1875 122.527 25.5977 121.887 25.8711C121.246 26.1445 120.562 26.2812 119.836 26.2812C118.555 26.2812 117.543 25.9336 116.801 25.2383C116.066 24.543 115.699 23.6641 115.699 22.6016C115.699 21.8984 115.867 21.2734 116.203 20.7266C116.539 20.1719 117.008 19.75 117.609 19.4609C118.219 19.1641 119.094 18.9062 120.234 18.6875C121.773 18.3984 122.84 18.1289 123.434 17.8789V17.5508C123.434 16.918 123.277 16.4688 122.965 16.2031C122.652 15.9297 122.062 15.793 121.195 15.793C120.609 15.793 120.152 15.9102 119.824 16.1445C119.496 16.3711 119.23 16.7734 119.027 17.3516ZM123.434 20.0234C123.012 20.1641 122.344 20.332 121.43 20.5273C120.516 20.7227 119.918 20.9141 119.637 21.1016C119.207 21.4062 118.992 21.793 118.992 22.2617C118.992 22.7227 119.164 23.1211 119.508 23.457C119.852 23.793 120.289 23.9609 120.82 23.9609C121.414 23.9609 121.98 23.7656 122.52 23.375C122.918 23.0781 123.18 22.7148 123.305 22.2852C123.391 22.0039 123.434 21.4688 123.434 20.6797V20.0234ZM135.633 13.5547V16.1797H133.383V21.1953C133.383 22.2109 133.402 22.8047 133.441 22.9766C133.488 23.1406 133.586 23.2773 133.734 23.3867C133.891 23.4961 134.078 23.5508 134.297 23.5508C134.602 23.5508 135.043 23.4453 135.621 23.2344L135.902 25.7891C135.137 26.1172 134.27 26.2812 133.301 26.2812C132.707 26.2812 132.172 26.1836 131.695 25.9883C131.219 25.7852 130.867 25.5273 130.641 25.2148C130.422 24.8945 130.27 24.4648 130.184 23.9258C130.113 23.543 130.078 22.7695 130.078 21.6055V16.1797H128.566V13.5547H130.078V11.082L133.383 9.16016V13.5547H135.633ZM145.125 22.0391L148.406 22.5898C147.984 23.793 147.316 24.7109 146.402 25.3438C145.496 25.9688 144.359 26.2812 142.992 26.2812C140.828 26.2812 139.227 25.5742 138.188 24.1602C137.367 23.0273 136.957 21.5977 136.957 19.8711C136.957 17.8086 137.496 16.1953 138.574 15.0312C139.652 13.8594 141.016 13.2734 142.664 13.2734C144.516 13.2734 145.977 13.8867 147.047 15.1133C148.117 16.332 148.629 18.2031 148.582 20.7266H140.332C140.355 21.7031 140.621 22.4648 141.129 23.0117C141.637 23.5508 142.27 23.8203 143.027 23.8203C143.543 23.8203 143.977 23.6797 144.328 23.3984C144.68 23.1172 144.945 22.6641 145.125 22.0391ZM145.312 18.7109C145.289 17.7578 145.043 17.0352 144.574 16.543C144.105 16.043 143.535 15.793 142.863 15.793C142.145 15.793 141.551 16.0547 141.082 16.5781C140.613 17.1016 140.383 17.8125 140.391 18.7109H145.312ZM150.117 22.4492L153.422 21.9453C153.562 22.5859 153.848 23.0742 154.277 23.4102C154.707 23.7383 155.309 23.9023 156.082 23.9023C156.934 23.9023 157.574 23.7461 158.004 23.4336C158.293 23.2148 158.438 22.9219 158.438 22.5547C158.438 22.3047 158.359 22.0977 158.203 21.9336C158.039 21.7773 157.672 21.6328 157.102 21.5C154.445 20.9141 152.762 20.3789 152.051 19.8945C151.066 19.2227 150.574 18.2891 150.574 17.0938C150.574 16.0156 151 15.1094 151.852 14.375C152.703 13.6406 154.023 13.2734 155.812 13.2734C157.516 13.2734 158.781 13.5508 159.609 14.1055C160.438 14.6602 161.008 15.4805 161.32 16.5664L158.215 17.1406C158.082 16.6562 157.828 16.2852 157.453 16.0273C157.086 15.7695 156.559 15.6406 155.871 15.6406C155.004 15.6406 154.383 15.7617 154.008 16.0039C153.758 16.1758 153.633 16.3984 153.633 16.6719C153.633 16.9062 153.742 17.1055 153.961 17.2695C154.258 17.4883 155.281 17.7969 157.031 18.1953C158.789 18.5938 160.016 19.082 160.711 19.6602C161.398 20.2461 161.742 21.0625 161.742 22.1094C161.742 23.25 161.266 24.2305 160.312 25.0508C159.359 25.8711 157.949 26.2812 156.082 26.2812C154.387 26.2812 153.043 25.9375 152.051 25.25C151.066 24.5625 150.422 23.6289 150.117 22.4492ZM170.344 13.5547V16.1797H168.094V21.1953C168.094 22.2109 168.113 22.8047 168.152 22.9766C168.199 23.1406 168.297 23.2773 168.445 23.3867C168.602 23.4961 168.789 23.5508 169.008 23.5508C169.312 23.5508 169.754 23.4453 170.332 23.2344L170.613 25.7891C169.848 26.1172 168.98 26.2812 168.012 26.2812C167.418 26.2812 166.883 26.1836 166.406 25.9883C165.93 25.7852 165.578 25.5273 165.352 25.2148C165.133 24.8945 164.98 24.4648 164.895 23.9258C164.824 23.543 164.789 22.7695 164.789 21.6055V16.1797H163.277V13.5547H164.789V11.082L168.094 9.16016V13.5547H170.344ZM193.934 26H190.16L188.66 22.0977H181.793L180.375 26H176.695L183.387 8.82031H187.055L193.934 26ZM187.547 19.2031L185.18 12.8281L182.859 19.2031H187.547ZM198.914 26H195.621V13.5547H198.68V15.3242C199.203 14.4883 199.672 13.9375 200.086 13.6719C200.508 13.4062 200.984 13.2734 201.516 13.2734C202.266 13.2734 202.988 13.4805 203.684 13.8945L202.664 16.7656C202.109 16.4062 201.594 16.2266 201.117 16.2266C200.656 16.2266 200.266 16.3555 199.945 16.6133C199.625 16.8633 199.371 17.3203 199.184 17.9844C199.004 18.6484 198.914 20.0391 198.914 22.1562V26ZM210.82 13.5547V16.1797H208.57V21.1953C208.57 22.2109 208.59 22.8047 208.629 22.9766C208.676 23.1406 208.773 23.2773 208.922 23.3867C209.078 23.4961 209.266 23.5508 209.484 23.5508C209.789 23.5508 210.23 23.4453 210.809 23.2344L211.09 25.7891C210.324 26.1172 209.457 26.2812 208.488 26.2812C207.895 26.2812 207.359 26.1836 206.883 25.9883C206.406 25.7852 206.055 25.5273 205.828 25.2148C205.609 24.8945 205.457 24.4648 205.371 23.9258C205.301 23.543 205.266 22.7695 205.266 21.6055V16.1797H203.754V13.5547H205.266V11.082L208.57 9.16016V13.5547H210.82ZM215.426 26L211.488 13.5547H214.688L217.02 21.7109L219.164 13.5547H222.34L224.414 21.7109L226.793 13.5547H230.039L226.043 26H222.879L220.734 17.9961L218.625 26H215.426ZM231.023 19.6016C231.023 18.5078 231.293 17.4492 231.832 16.4258C232.371 15.4023 233.133 14.6211 234.117 14.082C235.109 13.543 236.215 13.2734 237.434 13.2734C239.316 13.2734 240.859 13.8867 242.062 15.1133C243.266 16.332 243.867 17.875 243.867 19.7422C243.867 21.625 243.258 23.1875 242.039 24.4297C240.828 25.6641 239.301 26.2812 237.457 26.2812C236.316 26.2812 235.227 26.0234 234.188 25.5078C233.156 24.9922 232.371 24.2383 231.832 23.2461C231.293 22.2461 231.023 21.0312 231.023 19.6016ZM234.398 19.7773C234.398 21.0117 234.691 21.957 235.277 22.6133C235.863 23.2695 236.586 23.5977 237.445 23.5977C238.305 23.5977 239.023 23.2695 239.602 22.6133C240.188 21.957 240.48 21.0039 240.48 19.7539C240.48 18.5352 240.188 17.5977 239.602 16.9414C239.023 16.2852 238.305 15.957 237.445 15.957C236.586 15.957 235.863 16.2852 235.277 16.9414C234.691 17.5977 234.398 18.543 234.398 19.7773ZM249.609 26H246.316V13.5547H249.375V15.3242C249.898 14.4883 250.367 13.9375 250.781 13.6719C251.203 13.4062 251.68 13.2734 252.211 13.2734C252.961 13.2734 253.684 13.4805 254.379 13.8945L253.359 16.7656C252.805 16.4062 252.289 16.2266 251.812 16.2266C251.352 16.2266 250.961 16.3555 250.641 16.6133C250.32 16.8633 250.066 17.3203 249.879 17.9844C249.699 18.6484 249.609 20.0391 249.609 22.1562V26ZM255.691 26V8.82031H258.984V17.9375L262.84 13.5547H266.895L262.641 18.1016L267.199 26H263.648L260.52 20.4102L258.984 22.0156V26H255.691ZM268.008 22.4492L271.312 21.9453C271.453 22.5859 271.738 23.0742 272.168 23.4102C272.598 23.7383 273.199 23.9023 273.973 23.9023C274.824 23.9023 275.465 23.7461 275.895 23.4336C276.184 23.2148 276.328 22.9219 276.328 22.5547C276.328 22.3047 276.25 22.0977 276.094 21.9336C275.93 21.7773 275.562 21.6328 274.992 21.5C272.336 20.9141 270.652 20.3789 269.941 19.8945C268.957 19.2227 268.465 18.2891 268.465 17.0938C268.465 16.0156 268.891 15.1094 269.742 14.375C270.594 13.6406 271.914 13.2734 273.703 13.2734C275.406 13.2734 276.672 13.5508 277.5 14.1055C278.328 14.6602 278.898 15.4805 279.211 16.5664L276.105 17.1406C275.973 16.6562 275.719 16.2852 275.344 16.0273C274.977 15.7695 274.449 15.6406 273.762 15.6406C272.895 15.6406 272.273 15.7617 271.898 16.0039C271.648 16.1758 271.523 16.3984 271.523 16.6719C271.523 16.9062 271.633 17.1055 271.852 17.2695C272.148 17.4883 273.172 17.7969 274.922 18.1953C276.68 18.5938 277.906 19.082 278.602 19.6602C279.289 20.2461 279.633 21.0625 279.633 22.1094C279.633 23.25 279.156 24.2305 278.203 25.0508C277.25 25.8711 275.84 26.2812 273.973 26.2812C272.277 26.2812 270.934 25.9375 269.941 25.25C268.957 24.5625 268.312 23.6289 268.008 22.4492Z" fill="white"/>
<path d="M302 18H316" stroke="white" stroke-width="2" stroke-linecap="round" stroke-linejoin="round"/>
<path d="M309 11L316 18L309 25" stroke="white" stroke-width="2" stroke-linecap="round" stroke-linejoin="round"/>
<line y1="48" x2="63" y2="48" stroke="#5BA300" stroke-width="2"/>
</svg>
