<svg width="109" height="25" viewBox="0 0 109 25" fill="none" xmlns="http://www.w3.org/2000/svg">
<path d="M0.453125 12.5625C0.453125 8.82292 1.49479 5.91146 3.57812 3.82812C5.66146 1.74479 8.5625 0.703125 12.2812 0.703125C16.0938 0.703125 19.0312 1.72917 21.0938 3.78125C23.1562 5.82292 24.1875 8.6875 24.1875 12.375C24.1875 15.0521 23.7344 17.25 22.8281 18.9688C21.9323 20.6771 20.6302 22.0104 18.9219 22.9688C17.224 23.9167 15.1042 24.3906 12.5625 24.3906C9.97917 24.3906 7.83854 23.9792 6.14062 23.1562C4.45312 22.3333 3.08333 21.0312 2.03125 19.25C0.979167 17.4688 0.453125 15.2396 0.453125 12.5625ZM7.53125 12.5938C7.53125 14.9062 7.95833 16.5677 8.8125 17.5781C9.67708 18.5885 10.849 19.0938 12.3281 19.0938C13.849 19.0938 15.026 18.599 15.8594 17.6094C16.6927 16.6198 17.1094 14.8438 17.1094 12.2812C17.1094 10.125 16.6719 8.55208 15.7969 7.5625C14.9323 6.5625 13.7552 6.0625 12.2656 6.0625C10.8385 6.0625 9.69271 6.56771 8.82812 7.57812C7.96354 8.58854 7.53125 10.2604 7.53125 12.5938ZM27.625 7.40625H33.5625V9.82812C34.4167 8.81771 35.276 8.09896 36.1406 7.67188C37.0156 7.24479 38.0677 7.03125 39.2969 7.03125C40.6198 7.03125 41.6667 7.26562 42.4375 7.73438C43.2083 8.20312 43.8385 8.90104 44.3281 9.82812C45.3281 8.74479 46.2396 8.01042 47.0625 7.625C47.8854 7.22917 48.901 7.03125 50.1094 7.03125C51.8906 7.03125 53.2812 7.5625 54.2812 8.625C55.2812 9.67708 55.7812 11.3281 55.7812 13.5781V24H49.4062V14.5469C49.4062 13.7969 49.2604 13.2396 48.9688 12.875C48.5417 12.3021 48.0104 12.0156 47.375 12.0156C46.625 12.0156 46.0208 12.2865 45.5625 12.8281C45.1042 13.3698 44.875 14.2396 44.875 15.4375V24H38.5V14.8594C38.5 14.1302 38.4583 13.6354 38.375 13.375C38.2396 12.9583 38.0052 12.625 37.6719 12.375C37.3385 12.1146 36.9479 11.9844 36.5 11.9844C35.7708 11.9844 35.1719 12.2604 34.7031 12.8125C34.2344 13.3646 34 14.2708 34 15.5312V24H27.625V7.40625ZM59.8125 1.09375H66.1719V5.42188H59.8125V1.09375ZM59.8125 7.40625H66.1719V24H59.8125V7.40625ZM69.1094 19.4062L75.4219 18.8125C75.6823 19.5625 76.0469 20.099 76.5156 20.4219C76.9844 20.7448 77.6094 20.9062 78.3906 20.9062C79.2448 20.9062 79.9062 20.724 80.375 20.3594C80.7396 20.0885 80.9219 19.75 80.9219 19.3438C80.9219 18.8854 80.6823 18.5312 80.2031 18.2812C79.8594 18.1042 78.9479 17.8854 77.4688 17.625C75.2604 17.2396 73.724 16.8854 72.8594 16.5625C72.0052 16.2292 71.2812 15.6719 70.6875 14.8906C70.1042 14.1094 69.8125 13.2188 69.8125 12.2188C69.8125 11.125 70.1302 10.1823 70.7656 9.39062C71.401 8.59896 72.276 8.01042 73.3906 7.625C74.5052 7.22917 76 7.03125 77.875 7.03125C79.8542 7.03125 81.3125 7.18229 82.25 7.48438C83.1979 7.78646 83.9844 8.25521 84.6094 8.89062C85.2448 9.52604 85.7708 10.3854 86.1875 11.4688L80.1562 12.0625C80 11.5312 79.7396 11.1406 79.375 10.8906C78.875 10.5573 78.2708 10.3906 77.5625 10.3906C76.8438 10.3906 76.3177 10.5208 75.9844 10.7812C75.6615 11.0312 75.5 11.3385 75.5 11.7031C75.5 12.1094 75.7083 12.4167 76.125 12.625C76.5417 12.8333 77.4479 13.0208 78.8438 13.1875C80.9583 13.4271 82.5312 13.7604 83.5625 14.1875C84.5938 14.6146 85.3802 15.224 85.9219 16.0156C86.474 16.8073 86.75 17.6771 86.75 18.625C86.75 19.5833 86.4583 20.5156 85.875 21.4219C85.3021 22.3281 84.3906 23.0521 83.1406 23.5938C81.901 24.125 80.2083 24.3906 78.0625 24.3906C75.0312 24.3906 72.8698 23.9583 71.5781 23.0938C70.2969 22.2292 69.474 21 69.1094 19.4062ZM108.219 17.2812H95.4688C95.5833 18.3021 95.8594 19.0625 96.2969 19.5625C96.9115 20.2812 97.7135 20.6406 98.7031 20.6406C99.3281 20.6406 99.9219 20.4844 100.484 20.1719C100.828 19.974 101.198 19.625 101.594 19.125L107.859 19.7031C106.901 21.3698 105.745 22.5677 104.391 23.2969C103.036 24.0156 101.094 24.375 98.5625 24.375C96.3646 24.375 94.6354 24.0677 93.375 23.4531C92.1146 22.8281 91.0677 21.8438 90.2344 20.5C89.4115 19.1458 89 17.5573 89 15.7344C89 13.1406 89.8281 11.0417 91.4844 9.4375C93.151 7.83333 95.4479 7.03125 98.375 7.03125C100.75 7.03125 102.625 7.39062 104 8.10938C105.375 8.82812 106.422 9.86979 107.141 11.2344C107.859 12.599 108.219 14.375 108.219 16.5625V17.2812ZM101.75 14.2344C101.625 13.0052 101.292 12.125 100.75 11.5938C100.219 11.0625 99.5156 10.7969 98.6406 10.7969C97.6302 10.7969 96.8229 11.1979 96.2188 12C95.8333 12.5 95.5885 13.2448 95.4844 14.2344H101.75Z" fill="white"/>
</svg>
