<svg width="112" height="304" viewBox="0 0 112 304" fill="none" xmlns="http://www.w3.org/2000/svg">
<path d="M14.9688 33H10.0293V14.3848C8.22461 16.0723 6.09766 17.3203 3.64844 18.1289V13.6465C4.9375 13.2246 6.33789 12.4277 7.84961 11.2559C9.36133 10.0723 10.3984 8.69531 10.9609 7.125H14.9688V33ZM30.7188 7.125C33.2148 7.125 35.166 8.01563 36.5723 9.79688C38.248 11.9062 39.0859 15.4043 39.0859 20.291C39.0859 25.166 38.2422 28.6699 36.5547 30.8027C35.1602 32.5605 33.2148 33.4395 30.7188 33.4395C28.2109 33.4395 26.1895 32.4785 24.6543 30.5566C23.1191 28.623 22.3516 25.1836 22.3516 20.2383C22.3516 15.3867 23.1953 11.8945 24.8828 9.76172C26.2773 8.00391 28.2227 7.125 30.7188 7.125ZM30.7188 11.2207C30.1211 11.2207 29.5879 11.4141 29.1191 11.8008C28.6504 12.1758 28.2871 12.8555 28.0293 13.8398C27.6895 15.1172 27.5195 17.2676 27.5195 20.291C27.5195 23.3145 27.6719 25.3945 27.9766 26.5312C28.2812 27.6562 28.6621 28.4062 29.1191 28.7812C29.5879 29.1562 30.1211 29.3438 30.7188 29.3438C31.3164 29.3438 31.8496 29.1562 32.3184 28.7812C32.7871 28.3945 33.1504 27.709 33.4082 26.7246C33.748 25.459 33.918 23.3145 33.918 20.291C33.918 17.2676 33.7656 15.1934 33.4609 14.0684C33.1562 12.9316 32.7695 12.1758 32.3008 11.8008C31.8438 11.4141 31.3164 11.2207 30.7188 11.2207ZM43.4629 33V28.0605H48.4023V33H43.4629ZM65.0664 33H60.127V14.3848C58.3223 16.0723 56.1953 17.3203 53.7461 18.1289V13.6465C55.0352 13.2246 56.4355 12.4277 57.9473 11.2559C59.459 10.0723 60.4961 8.69531 61.0586 7.125H65.0664V33ZM73.3457 33V7.23047H78.2852V20.9062L84.0684 14.332H90.1504L83.7695 21.1523L90.6074 33H85.2812L80.5879 24.6152L78.2852 27.0234V33H73.3457ZM99.2207 29.291V22.5938H92.4707V17.9707H99.2207V11.2734H103.721V17.9707H110.488V22.5938H103.721V29.291H99.2207Z" fill="white"/>
<path d="M18.2246 68H15.0801L13.8301 64.748H8.10742L6.92578 68H3.85938L9.43555 53.6836H12.4922L18.2246 68ZM12.9023 62.3359L10.9297 57.0234L8.99609 62.3359H12.9023ZM22.375 68H19.6309V57.6289H22.1797V59.1035C22.6159 58.4069 23.0065 57.9479 23.3516 57.7266C23.7031 57.5052 24.1003 57.3945 24.543 57.3945C25.168 57.3945 25.7702 57.5671 26.3496 57.9121L25.5 60.3047C25.0378 60.0052 24.6081 59.8555 24.2109 59.8555C23.8268 59.8555 23.5013 59.9629 23.2344 60.1777C22.9674 60.3861 22.7559 60.7669 22.5996 61.3203C22.4499 61.8737 22.375 63.0326 22.375 64.7969V68ZM32.2969 57.6289V59.8164H30.4219V63.9961C30.4219 64.8424 30.4382 65.3372 30.4707 65.4805C30.5098 65.6172 30.5911 65.7311 30.7148 65.8223C30.8451 65.9134 31.0013 65.959 31.1836 65.959C31.4375 65.959 31.8053 65.8711 32.2871 65.6953L32.5215 67.8242C31.8835 68.0977 31.1608 68.2344 30.3535 68.2344C29.8587 68.2344 29.4128 68.153 29.0156 67.9902C28.6185 67.821 28.3255 67.6061 28.1367 67.3457C27.9544 67.0788 27.8275 66.7207 27.7559 66.2715C27.6973 65.9525 27.668 65.3079 27.668 64.3379V59.8164H26.4082V57.6289H27.668V55.5684L30.4219 53.9668V57.6289H32.2969ZM41.8184 68L38.4004 53.6836H41.3594L43.5176 63.5176L46.1348 53.6836H49.5723L52.082 63.6836L54.2793 53.6836H57.1895L53.7129 68H50.6465L47.7949 57.2969L44.9531 68H41.8184ZM57.6484 62.668C57.6484 61.7565 57.873 60.8743 58.3223 60.0215C58.7715 59.1686 59.4062 58.5176 60.2266 58.0684C61.0534 57.6191 61.9746 57.3945 62.9902 57.3945C64.5592 57.3945 65.8451 57.9056 66.8477 58.9277C67.8503 59.9434 68.3516 61.2292 68.3516 62.7852C68.3516 64.3542 67.8438 65.6562 66.8281 66.6914C65.819 67.7201 64.5462 68.2344 63.0098 68.2344C62.0592 68.2344 61.151 68.0195 60.2852 67.5898C59.4258 67.1602 58.7715 66.5319 58.3223 65.7051C57.873 64.8717 57.6484 63.8594 57.6484 62.668ZM60.4609 62.8145C60.4609 63.8431 60.7051 64.6309 61.1934 65.1777C61.6816 65.7246 62.2839 65.998 63 65.998C63.7161 65.998 64.3151 65.7246 64.7969 65.1777C65.2852 64.6309 65.5293 63.8366 65.5293 62.7949C65.5293 61.7793 65.2852 60.998 64.7969 60.4512C64.3151 59.9043 63.7161 59.6309 63 59.6309C62.2839 59.6309 61.6816 59.9043 61.1934 60.4512C60.7051 60.998 60.4609 61.7858 60.4609 62.8145ZM73.1367 68H70.3926V57.6289H72.9414V59.1035C73.3776 58.4069 73.7682 57.9479 74.1133 57.7266C74.4648 57.5052 74.862 57.3945 75.3047 57.3945C75.9297 57.3945 76.5319 57.5671 77.1113 57.9121L76.2617 60.3047C75.7995 60.0052 75.3698 59.8555 74.9727 59.8555C74.5885 59.8555 74.263 59.9629 73.9961 60.1777C73.7292 60.3861 73.5176 60.7669 73.3613 61.3203C73.2116 61.8737 73.1367 63.0326 73.1367 64.7969V68ZM78.2051 68V53.6836H80.9492V61.2812L84.1621 57.6289H87.541L83.9961 61.418L87.7949 68H84.8359L82.2285 63.3418L80.9492 64.6797V68H78.2051Z" fill="white" fill-opacity="0.6"/>
<path d="M15.082 145H10.1426V126.385C8.33789 128.072 6.21094 129.32 3.76172 130.129V125.646C5.05078 125.225 6.45117 124.428 7.96289 123.256C9.47461 122.072 10.5117 120.695 11.0742 119.125H15.082V145ZM23.5371 145V140.061H28.4766V145H23.5371ZM45.1406 145H40.2012V126.385C38.3965 128.072 36.2695 129.32 33.8203 130.129V125.646C35.1094 125.225 36.5098 124.428 38.0215 123.256C39.5332 122.072 40.5703 120.695 41.1328 119.125H45.1406V145ZM53.5605 145V119.23H61.3477L66.0234 136.809L70.6465 119.23H78.4512V145H73.6172V124.715L68.502 145H63.4922L58.3945 124.715V145H53.5605Z" fill="white"/>
<path d="M14.9668 183H11.8223L10.5723 179.748H4.84961L3.66797 183H0.601562L6.17773 168.684H9.23438L14.9668 183ZM9.64453 177.336L7.67188 172.023L5.73828 177.336H9.64453ZM19.1172 183H16.373V172.629H18.9219V174.104C19.3581 173.407 19.7487 172.948 20.0938 172.727C20.4453 172.505 20.8424 172.395 21.2852 172.395C21.9102 172.395 22.5124 172.567 23.0918 172.912L22.2422 175.305C21.7799 175.005 21.3503 174.855 20.9531 174.855C20.569 174.855 20.2435 174.963 19.9766 175.178C19.7096 175.386 19.498 175.767 19.3418 176.32C19.1921 176.874 19.1172 178.033 19.1172 179.797V183ZM29.0391 172.629V174.816H27.1641V178.996C27.1641 179.842 27.1803 180.337 27.2129 180.48C27.252 180.617 27.3333 180.731 27.457 180.822C27.5872 180.913 27.7435 180.959 27.9258 180.959C28.1797 180.959 28.5475 180.871 29.0293 180.695L29.2637 182.824C28.6257 183.098 27.903 183.234 27.0957 183.234C26.6009 183.234 26.1549 183.153 25.7578 182.99C25.3607 182.821 25.0677 182.606 24.8789 182.346C24.6966 182.079 24.5697 181.721 24.498 181.271C24.4395 180.952 24.4102 180.308 24.4102 179.338V174.816H23.1504V172.629H24.4102V170.568L27.1641 168.967V172.629H29.0391ZM30.9434 171.223V168.684H33.6875V171.223H30.9434ZM30.9434 183V172.629H33.6875V183H30.9434ZM35.543 180.041L38.2969 179.621C38.4141 180.155 38.6517 180.562 39.0098 180.842C39.3678 181.115 39.8691 181.252 40.5137 181.252C41.2233 181.252 41.7572 181.122 42.1152 180.861C42.3561 180.679 42.4766 180.435 42.4766 180.129C42.4766 179.921 42.4115 179.748 42.2812 179.611C42.1445 179.481 41.8385 179.361 41.3633 179.25C39.1497 178.762 37.7467 178.316 37.1543 177.912C36.334 177.352 35.9238 176.574 35.9238 175.578C35.9238 174.68 36.2786 173.924 36.9883 173.312C37.6979 172.701 38.7982 172.395 40.2891 172.395C41.7083 172.395 42.763 172.626 43.4531 173.088C44.1432 173.55 44.6185 174.234 44.8789 175.139L42.291 175.617C42.1803 175.214 41.9688 174.904 41.6562 174.689C41.3503 174.475 40.9108 174.367 40.3379 174.367C39.6152 174.367 39.0977 174.468 38.7852 174.67C38.5768 174.813 38.4727 174.999 38.4727 175.227C38.4727 175.422 38.5638 175.588 38.7461 175.725C38.9935 175.907 39.8464 176.164 41.3047 176.496C42.7695 176.828 43.7917 177.235 44.3711 177.717C44.944 178.205 45.2305 178.885 45.2305 179.758C45.2305 180.708 44.8333 181.525 44.0391 182.209C43.2448 182.893 42.0697 183.234 40.5137 183.234C39.1009 183.234 37.9811 182.948 37.1543 182.375C36.334 181.802 35.7969 181.024 35.543 180.041ZM52.3984 172.629V174.816H50.5234V178.996C50.5234 179.842 50.5397 180.337 50.5723 180.48C50.6113 180.617 50.6927 180.731 50.8164 180.822C50.9466 180.913 51.1029 180.959 51.2852 180.959C51.5391 180.959 51.9069 180.871 52.3887 180.695L52.623 182.824C51.985 183.098 51.2624 183.234 50.4551 183.234C49.9603 183.234 49.5143 183.153 49.1172 182.99C48.7201 182.821 48.4271 182.606 48.2383 182.346C48.056 182.079 47.929 181.721 47.8574 181.271C47.7988 180.952 47.7695 180.308 47.7695 179.338V174.816H46.5098V172.629H47.7695V170.568L50.5234 168.967V172.629H52.3984ZM53.3359 180.041L56.0898 179.621C56.207 180.155 56.4447 180.562 56.8027 180.842C57.1608 181.115 57.6621 181.252 58.3066 181.252C59.0163 181.252 59.5501 181.122 59.9082 180.861C60.1491 180.679 60.2695 180.435 60.2695 180.129C60.2695 179.921 60.2044 179.748 60.0742 179.611C59.9375 179.481 59.6315 179.361 59.1562 179.25C56.9427 178.762 55.5397 178.316 54.9473 177.912C54.127 177.352 53.7168 176.574 53.7168 175.578C53.7168 174.68 54.0716 173.924 54.7812 173.312C55.4909 172.701 56.5911 172.395 58.082 172.395C59.5013 172.395 60.556 172.626 61.2461 173.088C61.9362 173.55 62.4115 174.234 62.6719 175.139L60.084 175.617C59.9733 175.214 59.7617 174.904 59.4492 174.689C59.1432 174.475 58.7038 174.367 58.1309 174.367C57.4082 174.367 56.8906 174.468 56.5781 174.67C56.3698 174.813 56.2656 174.999 56.2656 175.227C56.2656 175.422 56.3568 175.588 56.5391 175.725C56.7865 175.907 57.6393 176.164 59.0977 176.496C60.5625 176.828 61.5846 177.235 62.1641 177.717C62.737 178.205 63.0234 178.885 63.0234 179.758C63.0234 180.708 62.6263 181.525 61.832 182.209C61.0378 182.893 59.8626 183.234 58.3066 183.234C56.8939 183.234 55.7741 182.948 54.9473 182.375C54.127 181.802 53.5898 181.024 53.3359 180.041Z" fill="white" fill-opacity="0.6"/>
<path d="M2.23633 253.162L7.01758 252.582C7.16992 253.801 7.58008 254.732 8.24805 255.377C8.91602 256.021 9.72461 256.344 10.6738 256.344C11.6934 256.344 12.5488 255.957 13.2402 255.184C13.9434 254.41 14.2949 253.367 14.2949 252.055C14.2949 250.812 13.9609 249.828 13.293 249.102C12.625 248.375 11.8105 248.012 10.8496 248.012C10.2168 248.012 9.46094 248.135 8.58203 248.381L9.12695 244.355C10.4629 244.391 11.4824 244.104 12.1855 243.494C12.8887 242.873 13.2402 242.053 13.2402 241.033C13.2402 240.166 12.9824 239.475 12.4668 238.959C11.9512 238.443 11.2656 238.186 10.4102 238.186C9.56641 238.186 8.8457 238.479 8.24805 239.064C7.65039 239.65 7.28711 240.506 7.1582 241.631L2.60547 240.857C2.92188 239.299 3.39648 238.057 4.0293 237.131C4.67383 236.193 5.56445 235.461 6.70117 234.934C7.84961 234.395 9.13281 234.125 10.5508 234.125C12.9766 234.125 14.9219 234.898 16.3867 236.445C17.5938 237.711 18.1973 239.141 18.1973 240.734C18.1973 242.996 16.9609 244.801 14.4883 246.148C15.9648 246.465 17.1426 247.174 18.0215 248.275C18.9121 249.377 19.3574 250.707 19.3574 252.266C19.3574 254.527 18.5312 256.455 16.8789 258.049C15.2266 259.643 13.1699 260.439 10.709 260.439C8.37695 260.439 6.44336 259.771 4.9082 258.436C3.37305 257.088 2.48242 255.33 2.23633 253.162ZM26.6875 246.096C25.4102 245.557 24.4785 244.818 23.8926 243.881C23.3184 242.932 23.0312 241.895 23.0312 240.77C23.0312 238.848 23.6992 237.26 25.0352 236.006C26.3828 234.752 28.293 234.125 30.7656 234.125C33.2148 234.125 35.1133 234.752 36.4609 236.006C37.8203 237.26 38.5 238.848 38.5 240.77C38.5 241.965 38.1895 243.031 37.5684 243.969C36.9473 244.895 36.0742 245.604 34.9492 246.096C36.3789 246.67 37.4629 247.508 38.2012 248.609C38.9512 249.711 39.3262 250.982 39.3262 252.424C39.3262 254.803 38.5645 256.736 37.041 258.225C35.5293 259.713 33.5137 260.457 30.9941 260.457C28.6504 260.457 26.6992 259.842 25.1406 258.611C23.3008 257.158 22.3809 255.166 22.3809 252.635C22.3809 251.24 22.7266 249.963 23.418 248.803C24.1094 247.631 25.1992 246.729 26.6875 246.096ZM27.707 241.121C27.707 242.105 27.9824 242.873 28.5332 243.424C29.0957 243.975 29.8398 244.25 30.7656 244.25C31.7031 244.25 32.4531 243.975 33.0156 243.424C33.5781 242.861 33.8594 242.088 33.8594 241.104C33.8594 240.178 33.5781 239.439 33.0156 238.889C32.4648 238.326 31.7324 238.045 30.8184 238.045C29.8691 238.045 29.1133 238.326 28.5508 238.889C27.9883 239.451 27.707 240.195 27.707 241.121ZM27.25 252.16C27.25 253.52 27.5957 254.58 28.2871 255.342C28.9902 256.104 29.8633 256.484 30.9062 256.484C31.9258 256.484 32.7695 256.121 33.4375 255.395C34.1055 254.656 34.4395 253.596 34.4395 252.213C34.4395 251.006 34.0996 250.039 33.4199 249.312C32.7402 248.574 31.8789 248.205 30.8359 248.205C29.6289 248.205 28.7266 248.621 28.1289 249.453C27.543 250.285 27.25 251.188 27.25 252.16ZM43.3691 260V234.23H48.3086V247.906L54.0918 241.332H60.1738L53.793 248.152L60.6309 260H55.3047L50.6113 251.615L48.3086 254.023V260H43.3691Z" fill="white"/>
<path d="M1.41797 291.342L4.23047 291.068C4.39974 292.012 4.74154 292.706 5.25586 293.148C5.77669 293.591 6.47656 293.812 7.35547 293.812C8.28646 293.812 8.98633 293.617 9.45508 293.227C9.93034 292.829 10.168 292.367 10.168 291.84C10.168 291.501 10.0671 291.215 9.86523 290.98C9.66992 290.74 9.32487 290.531 8.83008 290.355C8.49154 290.238 7.72005 290.03 6.51562 289.73C4.96615 289.346 3.87891 288.874 3.25391 288.314C2.375 287.527 1.93555 286.566 1.93555 285.434C1.93555 284.704 2.14062 284.024 2.55078 283.393C2.96745 282.755 3.56315 282.27 4.33789 281.938C5.11914 281.605 6.0599 281.439 7.16016 281.439C8.95703 281.439 10.3079 281.833 11.2129 282.621C12.1243 283.409 12.6029 284.46 12.6484 285.775L9.75781 285.902C9.63411 285.167 9.36719 284.639 8.95703 284.32C8.55339 283.995 7.94466 283.832 7.13086 283.832C6.29102 283.832 5.63346 284.005 5.1582 284.35C4.85221 284.571 4.69922 284.867 4.69922 285.238C4.69922 285.577 4.84245 285.867 5.12891 286.107C5.49349 286.413 6.37891 286.732 7.78516 287.064C9.19141 287.396 10.2298 287.742 10.9004 288.1C11.5775 288.451 12.1048 288.936 12.4824 289.555C12.8665 290.167 13.0586 290.925 13.0586 291.83C13.0586 292.65 12.8307 293.419 12.375 294.135C11.9193 294.851 11.2747 295.385 10.4414 295.736C9.60807 296.081 8.56966 296.254 7.32617 296.254C5.51628 296.254 4.1263 295.837 3.15625 295.004C2.1862 294.164 1.60677 292.943 1.41797 291.342ZM17.5215 288.793L15.0312 288.344C15.3112 287.341 15.793 286.599 16.4766 286.117C17.1602 285.635 18.1758 285.395 19.5234 285.395C20.7474 285.395 21.6589 285.541 22.2578 285.834C22.8568 286.12 23.2767 286.488 23.5176 286.938C23.765 287.38 23.8887 288.197 23.8887 289.389L23.8594 292.592C23.8594 293.503 23.9017 294.177 23.9863 294.613C24.0775 295.043 24.2435 295.505 24.4844 296H21.7695C21.6979 295.818 21.61 295.548 21.5059 295.189C21.4603 295.027 21.4277 294.919 21.4082 294.867C20.9395 295.323 20.4382 295.665 19.9043 295.893C19.3704 296.12 18.8008 296.234 18.1953 296.234C17.1276 296.234 16.2845 295.945 15.666 295.365C15.054 294.786 14.748 294.053 14.748 293.168C14.748 292.582 14.888 292.061 15.168 291.605C15.4479 291.143 15.8385 290.792 16.3398 290.551C16.8477 290.303 17.5768 290.089 18.5273 289.906C19.8099 289.665 20.6986 289.441 21.1934 289.232V288.959C21.1934 288.432 21.0632 288.057 20.8027 287.836C20.5423 287.608 20.0508 287.494 19.3281 287.494C18.8398 287.494 18.459 287.592 18.1855 287.787C17.9121 287.976 17.6908 288.311 17.5215 288.793ZM21.1934 291.02C20.8418 291.137 20.2852 291.277 19.5234 291.439C18.7617 291.602 18.2637 291.762 18.0293 291.918C17.6712 292.172 17.4922 292.494 17.4922 292.885C17.4922 293.269 17.6354 293.601 17.9219 293.881C18.2083 294.161 18.5729 294.301 19.0156 294.301C19.5104 294.301 19.9824 294.138 20.4316 293.812C20.7637 293.565 20.9818 293.262 21.0859 292.904C21.1576 292.67 21.1934 292.224 21.1934 291.566V291.02ZM26.6035 296V281.684H29.3477V296H26.6035ZM38.1758 292.699L40.9102 293.158C40.5586 294.161 40.002 294.926 39.2402 295.453C38.485 295.974 37.5378 296.234 36.3984 296.234C34.5951 296.234 33.2604 295.645 32.3945 294.467C31.7109 293.523 31.3691 292.331 31.3691 290.893C31.3691 289.174 31.8184 287.829 32.7168 286.859C33.6152 285.883 34.7513 285.395 36.125 285.395C37.668 285.395 38.8854 285.906 39.7773 286.928C40.6693 287.943 41.0957 289.503 41.0566 291.605H34.1816C34.2012 292.419 34.4225 293.054 34.8457 293.51C35.2689 293.959 35.7962 294.184 36.4277 294.184C36.8574 294.184 37.2188 294.066 37.5117 293.832C37.8047 293.598 38.026 293.22 38.1758 292.699ZM38.332 289.926C38.3125 289.132 38.1074 288.529 37.7168 288.119C37.3262 287.702 36.8509 287.494 36.291 287.494C35.6921 287.494 35.1973 287.712 34.8066 288.148C34.416 288.585 34.224 289.177 34.2305 289.926H38.332ZM42.3359 293.041L45.0898 292.621C45.207 293.155 45.4447 293.562 45.8027 293.842C46.1608 294.115 46.6621 294.252 47.3066 294.252C48.0163 294.252 48.5501 294.122 48.9082 293.861C49.1491 293.679 49.2695 293.435 49.2695 293.129C49.2695 292.921 49.2044 292.748 49.0742 292.611C48.9375 292.481 48.6315 292.361 48.1562 292.25C45.9427 291.762 44.5397 291.316 43.9473 290.912C43.127 290.352 42.7168 289.574 42.7168 288.578C42.7168 287.68 43.0716 286.924 43.7812 286.312C44.4909 285.701 45.5911 285.395 47.082 285.395C48.5013 285.395 49.556 285.626 50.2461 286.088C50.9362 286.55 51.4115 287.234 51.6719 288.139L49.084 288.617C48.9733 288.214 48.7617 287.904 48.4492 287.689C48.1432 287.475 47.7038 287.367 47.1309 287.367C46.4082 287.367 45.8906 287.468 45.5781 287.67C45.3698 287.813 45.2656 287.999 45.2656 288.227C45.2656 288.422 45.3568 288.588 45.5391 288.725C45.7865 288.907 46.6393 289.164 48.0977 289.496C49.5625 289.828 50.5846 290.235 51.1641 290.717C51.737 291.205 52.0234 291.885 52.0234 292.758C52.0234 293.708 51.6263 294.525 50.832 295.209C50.0378 295.893 48.8626 296.234 47.3066 296.234C45.8939 296.234 44.7741 295.948 43.9473 295.375C43.127 294.802 42.5898 294.024 42.3359 293.041Z" fill="white" fill-opacity="0.6"/>
</svg>
